<?xml version="1.0" standalone="yes"?>
<svg xmlns="http://www.w3.org/2000/svg" width="504" height="506">
<path style="fill:#f9f8f8; stroke:none;" d="M0 0L1 1L0 0z"/>
<path style="fill:#231f21; stroke:none;" d="M1 0L1 505L503 505L503 0L1 0z"/>
<path style="fill:#94aeb5; stroke:none;" d="M503 0L503 505L1 505L1 1L0 1L0 381L0 474C0 479.941 -3.22655 501.147 1.6034 504.972C3.8755 506.772 8.30661 506 11 506L36 506L132 506L504 506L504 148L504 44C504 31.5323 507.807 11.4559 503 0z"/>
<path style="fill:#da5935; stroke:none;" d="M80 66L81 67L80 66z"/>
<path style="fill:#94aeb5; stroke:none;" d="M81 66L82 67L81 66z"/>
<path style="fill:#f9c429; stroke:none;" d="M82 66.4684C56.3352 71.3927 64.097 111.213 90 106.671C116.652 101.998 108.298 61.4225 82 66.4684z"/>
<path style="fill:#da5935; stroke:none;" d="M91 66L92 67L91 66M410 66.5293C383.967 72.5471 394.802 112.527 421 106.471C447.06 100.447 436.06 60.5052 410 66.5293M77 67L78 68L77 67M94 67L95 68L94 67M96 68L97 69L96 68z"/>
<path style="fill:#94aeb5; stroke:none;" d="M74 69L75 70L74 69z"/>
<path style="fill:#da5935; stroke:none;" d="M99 70L100 71L99 70z"/>
<path style="fill:#94aeb5; stroke:none;" d="M100 71L101 72L100 71z"/>
<path style="fill:#da5935; stroke:none;" d="M101 72L102 73L101 72M102 73L103 74L102 73M68 75L69 76L68 75M104 76L105 77L104 76M67 77L68 78L67 77M105 78L106 79L105 78M66.3333 79.6667L66.6667 80.3333L66.3333 79.6667M106.333 81.6667L106.667 82.3333L106.333 81.6667M65 84L65 90L66 90L65 84M106.333 90.6667L106.667 91.3333L106.333 90.6667z"/>
<path style="fill:#94aeb5; stroke:none;" d="M66 92L67 93L66 92z"/>
<path style="fill:#da5935; stroke:none;" d="M66 93L67 94L66 93M105 94L106 95L105 94M67 95L68 96L67 95M104 96L105 97L104 96M68 97L69 98L68 97M102 99L103 100L102 99M101 100L102 101L101 100M71 101L72 102L71 101M100 101L101 102L100 101M99 102L100 103L99 102M98 103L99 104L98 103M75 104L76 105L75 104z"/>
<path style="fill:#94aeb5; stroke:none;" d="M96 104L97 105L96 104z"/>
<path style="fill:#da5935; stroke:none;" d="M77 105L78 106L77 105M94 105L95 106L94 105M80 106L81 107L80 106M91.6667 106.333L92.3333 106.667L91.6667 106.333z"/>
<path style="fill:#94aeb5; stroke:none;" d="M277.667 207.333L278.333 207.667L277.667 207.333z"/>
<path style="fill:#f9f8f8; stroke:none;" d="M269 257L257 261C264.412 280.939 307.321 287.128 310.812 261C312.657 247.19 304.652 240.078 292 236.895C286.45 235.499 277.905 234.833 275.047 228.956C272.365 223.443 279.197 218.515 284 217.974C290.584 217.232 295.39 220.933 299 226L310 222C305.563 200.012 265.275 202.532 261.471 224C258.748 239.374 271.81 244.574 284 247.627C289.155 248.917 296.289 250.171 298.214 256.015C300.264 262.24 293.096 266.194 288 266.814C279.694 267.825 273.613 263.53 269 257z"/>
<path style="fill:#94aeb5; stroke:none;" d="M292.667 207.333L293.333 207.667L292.667 207.333M274 208L275 209L274 208M296.667 208.333L297.333 208.667L296.667 208.333M272 209L273 210L272 209M299 209L300 210L299 209M270 210L271 211L270 210M301 210L302 211L301 210M366 222L367 222L367 212L378 212L378 222C380.97 214.922 373.032 205.024 367.028 212.603C365.231 214.871 366 219.297 366 222M423 222L424 222L424 212L435 212L435 222C437.97 214.922 430.032 205.024 424.028 212.603C422.231 214.871 423 219.297 423 222M267 212L268 213L267 212M304 212L305 213L304 212z"/>
<path style="fill:#f9f8f8; stroke:none;" d="M367 212L367 222L378 222L378 212L367 212M424 212L424 222L435 222L435 212L424 212z"/>
<path style="fill:#94aeb5; stroke:none;" d="M266 213L267 214L266 213M305 213L306 214L305 213M265 214L266 215L265 214M306 214L307 215L306 214M307 215L308 216L307 215M263 217L264 218L263 217M284.667 217.333L285.333 217.667L284.667 217.333M280 218L281 219L280 218z"/>
<path style="fill:#da5935; stroke:none;" d="M289 218L290 219L289 218z"/>
<path style="fill:#94aeb5; stroke:none;" d="M290 218L291 219L290 218M309 218L310 219L309 218M262 219L263 220L262 219M278 219L279 220L278 219z"/>
<path style="fill:#da5935; stroke:none;" d="M292 219L293 220L292 219z"/>
<path style="fill:#94aeb5; stroke:none;" d="M293 219L294 220L293 219M294 220L295 221L294 220z"/>
<path style="fill:#da5935; stroke:none;" d="M310 220L311 221L310 220z"/>
<path style="fill:#94aeb5; stroke:none;" d="M310 221L311 222L310 221M261.333 222.667L261.667 223.333L261.333 222.667M308 222L309 223L308 222M274 223L275 224L274 223z"/>
<path style="fill:#da5935; stroke:none;" d="M297 223L298 224L297 223z"/>
<path style="fill:#94aeb5; stroke:none;" d="M305.667 223.333L306.333 223.667L305.667 223.333M298 224L299 225L298 224M303 224L304 225L303 224M300 225L301 226L300 225z"/>
<path style="fill:#da5935; stroke:none;" d="M301 225L302 226L301 225z"/>
<path style="fill:#94aeb5; stroke:none;" d="M339 226L339 227L345 227L339 226z"/>
<path style="fill:#da5935; stroke:none;" d="M345 226L346 227L345 226z"/>
<path style="fill:#94aeb5; stroke:none;" d="M411 226L411 227L418 227L411 226M316 227L316 296L317 296L317 228L328 228L316 227M335.667 227.333L336.333 227.667L335.667 227.333z"/>
<path style="fill:#f9f8f8; stroke:none;" d="M328 233L328 228L317 228L317 296L328 296L328 273C331.906 275.349 335.307 277.708 340 277.956C378.674 280 360.706 203.846 328 233z"/>
<path style="fill:#94aeb5; stroke:none;" d="M348.667 227.333L349.333 227.667L348.667 227.333M366 277L367 277L367 228L378 228L378 277C379.769 272.785 379 267.536 379 263C379 253.185 381.474 239.553 378.682 230.148C377.564 226.383 370.403 225.811 367.603 228.028C364.649 230.368 366 237.684 366 241L366 277M386 227L386 228L397 228L399 235L398 227L386 227z"/>
<path style="fill:#da5935; stroke:none;" d="M407 227L408 228L407 227z"/>
<path style="fill:#94aeb5; stroke:none;" d="M408 227L409 228L408 227z"/>
<path style="fill:#f9f8f8; stroke:none;" d="M397 235L397 228L386 228L386 277L398 277C398 259.387 393.89 237.202 418 237L418 227C408.923 227.006 403.993 229.344 397 235z"/>
<path style="fill:#94aeb5; stroke:none;" d="M423 277L424 277L424 228L435 228L435 277C436.769 272.785 436 267.536 436 263C436 253.185 438.474 239.553 435.682 230.148C434.564 226.383 427.402 225.811 424.603 228.028C421.649 230.368 423 237.684 423 241L423 277M333 228L334 229L333 228M351 228L352 229L351 228z"/>
<path style="fill:#f9f8f8; stroke:none;" d="M367 228L367 277L378 277L378 228L367 228z"/>
<path style="fill:#94aeb5; stroke:none;" d="M405 228L406 229L405 228z"/>
<path style="fill:#f9f8f8; stroke:none;" d="M424 228L424 277L435 277L435 228L424 228z"/>
<path style="fill:#94aeb5; stroke:none;" d="M274 229L275 230L274 229M353 229L354 230L353 229z"/>
<path style="fill:#da5935; stroke:none;" d="M403 229L404 230L403 229z"/>
<path style="fill:#94aeb5; stroke:none;" d="M261 230L261 233L262 233L261 230M330 230L331 231L330 230M354 230L355 231L354 230M402 230L403 231L402 230M329 231L330 232L329 231M277 232L278 233L277 232M328 232L329 233L328 232M279 233L280 234L279 233M357 233L358 234L357 233M282 234L283 235L282 234z"/>
<path style="fill:#da5935; stroke:none;" d="M283 234L284 235L283 234z"/>
<path style="fill:#94aeb5; stroke:none;" d="M358 234L359 235L358 234M262 235L263 236L262 235M285.667 235.333L286.333 235.667L285.667 235.333z"/>
<path style="fill:#da5935; stroke:none;" d="M287 235L288 236L287 235z"/>
<path style="fill:#94aeb5; stroke:none;" d="M290.667 236.333L291.333 236.667L290.667 236.333M359 236L360 237L359 236M263 237L264 238L263 237M294.667 237.333L295.333 237.667L294.667 237.333M334.667 237.333L335.333 237.667L334.667 237.333z"/>
<path style="fill:#231f21; stroke:none;" d="M336.001 237.576C322.547 241.295 325.091 272.166 341.996 267.566C354.221 264.239 352.244 233.087 336.001 237.576z"/>
<path style="fill:#94aeb5; stroke:none;" d="M342.667 237.333L343.333 237.667L342.667 237.333M410 237L410 238L418 238L410 237M264 238L265 239L264 238M297.667 238.333L298.333 238.667L297.667 238.333M332 238L333 239L332 238M345 238L346 239L345 238M360.333 238.667L360.667 239.333L360.333 238.667M407 238L408 239L407 238M300 239L301 240L300 239M331 239L332 240L331 239M346 239L347 240L346 239M404 239L405 240L404 239M302 240L303 241L302 240M330 240L331 241L330 240M347 240L348 241L347 240M403 240L404 241L403 240M267 241L268 242L267 241z"/>
<path style="fill:#da5935; stroke:none;" d="M304 241L305 242L304 241z"/>
<path style="fill:#94aeb5; stroke:none;" d="M268 242L269 243L268 242M305 242L306 243L305 242M348 242L349 243L348 242M361 242L361 262L362 262L361 242M270 243L271 244L270 243M306 243L307 244L306 243M272 244L273 245L272 244M307 244L308 245L307 244M328.333 244.667L328.667 245.333L328.333 244.667M399 244L400 245L399 244M275 245L276 246L275 245M308 245L309 246L308 245M349 245L349 260L350 260L349 245M278.667 246.333L279.333 246.667L278.667 246.333M282.667 247.333L283.333 247.667L282.667 247.333M309 247L310 248L309 247M398 247L399 248L398 247z"/>
<path style="fill:#da5935; stroke:none;" d="M286 248L287 249L286 248z"/>
<path style="fill:#94aeb5; stroke:none;" d="M287 248L288 249L287 248M290.667 249.333L291.333 249.667L290.667 249.333M310 249L311 250L310 249M293 250L294 251L293 250M295 251L296 252L295 251M296 252L297 253L296 252M297 253L298 254L297 253M311 253L311 261L312 261L311 253M298 255L299 256L298 255M268 256L269 257L268 256z"/>
<path style="fill:#da5935; stroke:none;" d="M298 256L299 257L298 256M265 257L266 258L265 257z"/>
<path style="fill:#94aeb5; stroke:none;" d="M266 257L267 258L266 257M263 258L264 259L263 258M269 258L270 259L269 258M260.667 259.333L261.333 259.667L260.667 259.333z"/>
<path style="fill:#da5935; stroke:none;" d="M270 259L271 260L270 259M298 259L299 260L298 259z"/>
<path style="fill:#94aeb5; stroke:none;" d="M258 260L259 261L258 260M298 260L299 261L298 260M328.333 260.667L328.667 261.333L328.333 260.667M257.333 262.667L257.667 263.333L257.333 262.667M297 262L298 263L297 262M348 262L349 263L348 262M296 263L297 264L296 263M310 263L311 264L310 263M329 263L330 264L329 263M275 264L276 265L275 264M295 264L296 265L295 264z"/>
<path style="fill:#da5935; stroke:none;" d="M310 264L311 265L310 264z"/>
<path style="fill:#94aeb5; stroke:none;" d="M347 264L348 265L347 264M258 265L259 266L258 265M277 265L278 266L277 265M293 265L294 266L293 265M346 265L347 266L346 265M360 265L361 266L360 265M259 266L260 267L259 266M280.667 266.333L281.333 266.667L280.667 266.333M289.667 266.333L290.333 266.667L289.667 266.333M309 266L310 267L309 266M332 266L333 267L332 266M345 266L346 267L345 266M308 267L309 268L308 267M334 267L335 268L334 267M343 267L344 268L343 267M260 268L261 269L260 268M338.667 268.333L339.333 268.667L338.667 268.333M359 268L360 269L359 268M261 269L262 270L261 269z"/>
<path style="fill:#da5935; stroke:none;" d="M307 269L308 270L307 269z"/>
<path style="fill:#94aeb5; stroke:none;" d="M358 269L359 270L358 269M262 270L263 271L262 270M306 270L307 271L306 270M263 271L264 272L263 271M305 271L306 272L305 271M357 271L358 272L357 271z"/>
<path style="fill:#da5935; stroke:none;" d="M264 272L265 273L264 272z"/>
<path style="fill:#94aeb5; stroke:none;" d="M356 272L357 273L356 272M266 273L267 274L266 273M302 273L303 274L302 273M329 273L330 274L329 273M355 273L356 274L355 273z"/>
<path style="fill:#da5935; stroke:none;" d="M301 274L302 275L301 274z"/>
<path style="fill:#94aeb5; stroke:none;" d="M330 274L331 275L330 274z"/>
<path style="fill:#da5935; stroke:none;" d="M354 274L355 275L354 274z"/>
<path style="fill:#94aeb5; stroke:none;" d="M269.667 275.333L270.333 275.667L269.667 275.333M299 275L300 276L299 275M331 275L332 276L331 275M352 275L353 276L352 275M272 276L273 277L272 276M296 276L297 277L296 276M333 276L334 277L333 276M350 276L351 277L350 276M275 277L275 278L278 278L275 277M292.667 277.333L293.333 277.667L292.667 277.333M335 277L336 278L335 277M347.667 277.333L348.333 277.667L347.667 277.333M283 278L283 279L287 279L283 278M339 278L339 279L344 279L339 278M78 399C69.2169 399.39 64.3499 411.141 65.3156 419C67.0318 432.967 82.2822 441.284 95 435.637C98.6945 433.996 101.685 431.396 103.867 427.996C106.206 424.351 107.114 420.298 106.956 416C106.552 405.004 87.7039 386.253 78 399M411 396.468C384.183 401.614 394.147 442.459 421 436.61C446.534 431.047 436.619 391.553 411 396.468z"/>
<path style="fill:#f9f8f8; stroke:none;" d="M77 398L78 399L77 398M73 401L74 402L73 401M97 405L98 406L97 405M102 427L103 428L102 427M0 505L1 506L0 505z"/>
</svg>
